name analog
datacolumns 19
datarows 45
range 0.4995 0.5215
endheader
time	ground_force_vx	ground_force_vy	ground_force_vz	ground_force_px	ground_force_py	ground_force_pz	l_ground_force_vx	l_ground_force_vy	l_ground_force_vz	l_ground_force_px	l_ground_force_py	l_ground_force_pz	ground_torque_x	ground_torque_y	ground_torque_z	l_ground_torque_x	l_ground_torque_y	l_ground_torque_z
0.4995	-0.0	-0.0	-0.0	-0.0	-0.0	-0.0	12.16580295562744	3.980661153793335	-797.0764770507812	-0.0	-0.0	-0.0	-0.0	-0.0	-0.0	234311.546875	-25177.833984375	1580.8187255859375
0.5	-0.0	-0.0	-0.0	-0.0	-0.0	-0.0	12.932969093322754	2.665253162384033	-798.135986328125	-0.0	-0.0	-0.0	-0.0	-0.0	-0.0	233859.234375	-25083.06640625	1756.9090576171875
0.5005000000000001	-0.0	-0.0	-0.0	-0.0	-0.0	-0.0	13.12285327911377	1.517256259918213	-798.522216796875	-0.0	-0.0	-0.0	-0.0	-0.0	-0.0	233913.578125	-24725.490234375	1764.138671875
0.501	-0.0	-0.0	-0.0	-0.0	-0.0	-0.0	13.148449897766112	0.3596764206886291	-797.487548828125	-0.0	-0.0	-0.0	-0.0	-0.0	-0.0	233010.390625	-24198.681640625	1815.7298583984373
0.5015000000000001	-0.0	-0.0	-0.0	-0.0	-0.0	-0.0	13.02100658416748	0.1507861018180847	-797.4495239257812	-0.0	-0.0	-0.0	-0.0	-0.0	-0.0	232543.09375	-23516.162109375	1641.9066162109375
0.502	-0.0	-0.0	-0.0	-0.0	-0.0	-0.0	12.340620994567873	-1.1221047639846802	-794.6304321289062	-0.0	-0.0	-0.0	-0.0	-0.0	-0.0	231948.859375	-23074.1484375	1551.021728515625
0.5025000000000001	-0.0	-0.0	-0.0	-0.0	-0.0	-0.0	11.805157661437988	-1.6814090013504028	-790.8023071289062	-0.0	-0.0	-0.0	-0.0	-0.0	-0.0	230546.84375	-21790.560546875	1200.06689453125
0.503	-0.0	-0.0	-0.0	-0.0	-0.0	-0.0	10.457825660705566	-2.6396477222442627	-789.1353759765625	-0.0	-0.0	-0.0	-0.0	-0.0	-0.0	229791.703125	-20872.333984375	901.1677856445312
0.5035000000000001	-0.0	-0.0	-0.0	-0.0	-0.0	-0.0	9.065366744995115	-2.91797423362732	-785.9403076171875	-0.0	-0.0	-0.0	-0.0	-0.0	-0.0	228687.5625	-19784.56640625	598.9869384765625
0.504	-0.0	-0.0	-0.0	-0.0	-0.0	-0.0	8.345635414123535	-3.176184892654419	-784.55712890625	-0.0	-0.0	-0.0	-0.0	-0.0	-0.0	228241.40625	-19008.166015625	244.7220458984375
0.5045000000000001	-0.0	-0.0	-0.0	-0.0	-0.0	-0.0	7.714389801025391	-2.6771159172058105	-784.4486694335938	-0.0	-0.0	-0.0	-0.0	-0.0	-0.0	228459.984375	-18517.365234375	60.67534637451172
0.505	-0.0	-0.0	-0.0	-0.0	-0.0	-0.0	8.055302619934082	-2.221884250640869	-781.1615600585938	-0.0	-0.0	-0.0	-0.0	-0.0	-0.0	228033.734375	-17913.1015625	10.97594165802002
0.5055000000000001	-0.0	-0.0	-0.0	-0.0	-0.0	-0.0	8.178958892822266	-1.932583451271057	-782.74267578125	-0.0	-0.0	-0.0	-0.0	-0.0	-0.0	227574.953125	-17226.2265625	13.54965591430664
0.506	-0.0	-0.0	-0.0	-0.0	-0.0	-0.0	8.431075096130371	-1.5156095027923584	-781.135986328125	-0.0	-0.0	-0.0	-0.0	-0.0	-0.0	227474.28125	-16680.025390625	187.1574859619141
0.5065000000000001	-0.0	-0.0	-0.0	-0.0	-0.0	-0.0	8.612102508544922	-1.7557456493377686	-781.443603515625	-0.0	-0.0	-0.0	-0.0	-0.0	-0.0	227619.828125	-15976.6357421875	155.19573974609375
0.507	-0.0	-0.0	-0.0	-0.0	-0.0	-0.0	7.629127502441406	-2.105320453643799	-781.793212890625	-0.0	-0.0	-0.0	-0.0	-0.0	-0.0	228096.109375	-15490.9033203125	-111.34685516357422
0.5075000000000001	-0.0	-0.0	-0.0	-0.0	-0.0	-0.0	6.139310836791992	-2.200767517089844	-785.5048828125	-0.0	-0.0	-0.0	-0.0	-0.0	-0.0	228233.3125	-14704.5234375	-498.0380859375
0.508	-0.0	-0.0	-0.0	-0.0	-0.0	-0.0	5.067559242248535	-1.3504822254180908	-784.9218139648438	-0.0	-0.0	-0.0	-0.0	-0.0	-0.0	228315.09375	-13716.8525390625	-651.8099365234375
0.5085000000000001	-0.0	-0.0	-0.0	-0.0	-0.0	-0.0	4.339391231536865	-0.3866064548492431	-784.514404296875	-0.0	-0.0	-0.0	-0.0	-0.0	-0.0	228393.453125	-13238.572265625	-1003.1025390625
0.509	-0.0	-0.0	-0.0	-0.0	-0.0	-0.0	3.637142181396485	-0.1841224133968353	-784.1798095703125	-0.0	-0.0	-0.0	-0.0	-0.0	-0.0	228643.1875	-12232.92578125	-1031.93359375
0.5095000000000001	-0.0	-0.0	-0.0	-0.0	-0.0	-0.0	2.248117446899414	0.6914661526679993	-785.2269897460938	-0.0	-0.0	-0.0	-0.0	-0.0	-0.0	228411.421875	-11434.494140625	-1307.2486572265625
0.51	-0.0	-0.0	-0.0	-0.0	-0.0	-0.0	1.51190447807312	0.449217140674591	-784.8778076171875	-0.0	-0.0	-0.0	-0.0	-0.0	-0.0	228085.96875	-10261.2470703125	-1711.658447265625
0.5105000000000001	-0.0	-0.0	-0.0	-0.0	-0.0	-0.0	0.1851387917995453	0.4416084289550781	-784.8776245117188	-0.0	-0.0	-0.0	-0.0	-0.0	-0.0	228083.4375	-9803.6171875	-1780.888916015625
0.511	-0.0	-0.0	-0.0	-0.0	-0.0	-0.0	-0.7018941044807434	0.6988154649734497	-784.1638793945312	-0.0	-0.0	-0.0	-0.0	-0.0	-0.0	227552.046875	-8805.8212890625	-2017.476318359375
0.5115000000000001	-0.0	-0.0	-0.0	-0.0	-0.0	-0.0	-1.3345822095870972	1.4858556985855105	-784.0865478515625	-0.0	-0.0	-0.0	-0.0	-0.0	-0.0	227118.1875	-7801.486328125	-2111.962646484375
0.512	-0.0	-0.0	-0.0	-0.0	-0.0	-0.0	-1.8629264831542969	1.5054092407226562	-781.1455688476562	-0.0	-0.0	-0.0	-0.0	-0.0	-0.0	226908.203125	-7305.45068359375	-2448.499267578125
0.5125	-0.0	-0.0	-0.0	-0.0	-0.0	-0.0	-1.9756097793579104	2.1157426834106445	-781.7976684570312	-0.0	-0.0	-0.0	-0.0	-0.0	-0.0	226676.828125	-6661.2646484375	-2400.982666015625
0.513	-0.0	-0.0	-0.0	-0.0	-0.0	-0.0	-2.2298386096954346	3.167564630508423	-781.0838012695312	-0.0	-0.0	-0.0	-0.0	-0.0	-0.0	226225.015625	-5874.30126953125	-2458.860595703125
0.5135	-0.0	-0.0	-0.0	-0.0	-0.0	-0.0	-2.741913318634033	2.898444890975952	-782.781982421875	-0.0	-0.0	-0.0	-0.0	-0.0	-0.0	226061.203125	-5309.9599609375	-2515.8681640625
0.514	-0.0	-0.0	-0.0	-0.0	-0.0	-0.0	-2.9151618480682373	2.6414904594421387	-781.0360107421875	-0.0	-0.0	-0.0	-0.0	-0.0	-0.0	226175.859375	-4685.51220703125	-2637.390869140625
0.5145	-0.0	-0.0	-0.0	-0.0	-0.0	-0.0	-3.967231750488281	2.818078994750977	-782.7005615234375	-0.0	-0.0	-0.0	-0.0	-0.0	-0.0	226041.328125	-4156.2041015625	-2847.09423828125
0.515	-0.0	-0.0	-0.0	-0.0	-0.0	-0.0	-4.346828460693359	1.7871578931808472	-784.4290161132812	-0.0	-0.0	-0.0	-0.0	-0.0	-0.0	225766.296875	-3603.27197265625	-2937.9853515625
0.5155	-0.0	-0.0	-0.0	-0.0	-0.0	-0.0	-5.056514739990234	1.349918246269226	-784.2111206054688	-0.0	-0.0	-0.0	-0.0	-0.0	-0.0	226126.609375	-3340.813720703125	-3004.939697265625
0.516	-0.0	-0.0	-0.0	-0.0	-0.0	-0.0	-5.495840072631836	1.5940004587173462	-784.892822265625	-0.0	-0.0	-0.0	-0.0	-0.0	-0.0	226305.296875	-3076.86376953125	-3260.891845703125
0.5165	-0.0	-0.0	-0.0	-0.0	-0.0	-0.0	-5.690287590026856	1.3078372478485107	-786.8870849609375	-0.0	-0.0	-0.0	-0.0	-0.0	-0.0	226341.5	-2630.171875	-3241.374267578125
0.517	-0.0	-0.0	-0.0	-0.0	-0.0	-0.0	-6.400086402893066	1.257925271987915	-788.6996459960938	-0.0	-0.0	-0.0	-0.0	-0.0	-0.0	227244.265625	-2317.227783203125	-3531.375244140625
0.5175	-0.0	-0.0	-0.0	-0.0	-0.0	-0.0	-7.5143723487854	1.572503685951233	-793.1699829101562	-0.0	-0.0	-0.0	-0.0	-0.0	-0.0	228031.8125	-2258.615234375	-3539.320068359375
0.518	-0.0	-0.0	-0.0	-0.0	-0.0	-0.0	-7.696013450622559	0.8035868406295776	-795.9969482421875	-0.0	-0.0	-0.0	-0.0	-0.0	-0.0	229000.53125	-2090.610107421875	-3573.711669921875
0.5185	-0.0	-0.0	-0.0	-0.0	-0.0	-0.0	-7.20758581161499	1.1481819152832031	-798.457763671875	-0.0	-0.0	-0.0	-0.0	-0.0	-0.0	229768.828125	-2211.560302734375	-3677.28662109375
0.519	-0.0	-0.0	-0.0	-0.0	-0.0	-0.0	-7.212213516235352	1.0554397106170654	-801.215576171875	-0.0	-0.0	-0.0	-0.0	-0.0	-0.0	229921.0625	-1943.3746337890625	-3709.896728515625
0.5195	-0.0	-0.0	-0.0	-0.0	-0.0	-0.0	-7.7886786460876465	0.7199174165725708	-802.5764770507812	-0.0	-0.0	-0.0	-0.0	-0.0	-0.0	230208.0	-1852.7196044921875	-3713.361328125
0.52	-0.0	-0.0	-0.0	-0.0	-0.0	-0.0	-8.22307300567627	1.5718491077423096	-801.9835205078125	-0.0	-0.0	-0.0	-0.0	-0.0	-0.0	230371.953125	-1711.211669921875	-3888.42529296875
0.5205	-0.0	-0.0	-0.0	-0.0	-0.0	-0.0	-8.595861434936523	1.4086244106292725	-802.0191040039062	-0.0	-0.0	-0.0	-0.0	-0.0	-0.0	230433.640625	-1667.735595703125	-4030.950927734375
0.521	-0.0	-0.0	-0.0	-0.0	-0.0	-0.0	-8.80064868927002	2.022298574447632	-802.3864135742188	-0.0	-0.0	-0.0	-0.0	-0.0	-0.0	230254.3125	-1452.27099609375	-3944.949951171875
0.5215	-0.0	-0.0	-0.0	-0.0	-0.0	-0.0	-8.848040580749512	2.28718900680542	-801.3211059570312	-0.0	-0.0	-0.0	-0.0	-0.0	-0.0	229807.59375	-1286.7376708984375	-4061.981689453125
